<?xml version="1.0" encoding="UTF-8"?>
<svg
  xmlns="http://www.w3.org/2000/svg"
  width="1100"
  height="1280"
  viewBox="0 0 1100 1280"
>
  <defs>
    <style>
      .bg          { fill: #f8f8f6; }
      .line-strong { stroke: #111; stroke-width: 2.4; fill: none; }
      .line-mid    { stroke: #888; stroke-width: 1.2; fill: none; }
      .line-soft   { stroke: #d8d8d8; stroke-width: 0.8; fill: none; }
      .text-title  { font-family: Arial, Helvetica, sans-serif; font-size: 28px; letter-spacing: 8px; fill: #111; }
      .text-subtitle { font-family: Arial, Helvetica, sans-serif; font-size: 12px; letter-spacing: 4px; fill: #444; }
      .text-small  { font-family: Arial, Helvetica, sans-serif; font-size: 13px; fill: #333; }
      .text-medium { font-family: Arial, Helvetica, sans-serif; font-size: 16px; fill: #222; }
      .text-meta   { font-family: Arial, Helvetica, sans-serif; font-size: 12px; letter-spacing: 2px; fill: #444; }
      .text-id     { font-family: 'Courier New', monospace; font-size: 14px; letter-spacing: 2px; fill: #111; }
      .text-core-big   { font-family: Arial, Helvetica, sans-serif; font-size: 58px; font-weight: 700; fill: #111; }
      .text-core-small { font-family: Arial, Helvetica, sans-serif; font-size: 11px; letter-spacing: 2px; fill: #555; }
      .label-box   { fill: #f9f9f9; stroke: #c8c8c8; stroke-width: 1.1; }
      .orient-dot  { fill: #fff; stroke: #ccc; stroke-width: 1.2; }
      .hash-fill   { fill: #333; }
      .hash-open   { fill: none; stroke: #999; stroke-width: 0.9; }
      .point       { fill: #111; }
      .point-soft  { fill: #666; opacity: 0.7; }
      .guide       { stroke: #ccc; stroke-width: 0.8; fill: none; stroke-dasharray: 3 7; }
      .crosshair   { stroke: #e8e8e8; stroke-width: 0.8; stroke-dasharray: 2 8; }
    </style>
  </defs>

  <rect class="bg" x="0" y="0" width="1100" height="1280" />

  <!-- Title / subtitle -->
  <text x="550" y="86" text-anchor="middle" class="text-title">VSC FOLDER TOKEN</text>
  <text x="550" y="118" text-anchor="middle" class="text-subtitle">MACHINE READABLE · BASELINE 0 · SPARSE DELTA · SHA-256</text>
  <line x1="400" y1="132" x2="700" y2="132" class="line-soft" />

  <!-- Quiet crosshairs — two axes only -->
  <line x1="550" y1="195" x2="550" y2="915" class="crosshair" />
  <line x1="190" y1="555" x2="910" y2="555" class="crosshair" />

  <!-- 5 structural rings (was 12) -->
  <circle cx="550" cy="555" r="134" class="line-soft" />
  <circle cx="550" cy="555" r="190" class="line-soft" />
  <circle cx="550" cy="555" r="246" class="line-soft" />
  <circle cx="550" cy="555" r="302" class="line-soft" />
  <circle cx="550" cy="555" r="358" class="line-soft" />

  <!-- Outer ring — strong boundary -->
  <circle cx="550" cy="555" r="360" class="line-strong" />
  <circle cx="550" cy="555" r="342" class="line-mid" />

  <!-- Six quiet orientation dots (no number) -->
  <circle cx="550.0" cy="193.0" r="9" class="orient-dot" />
  <circle cx="863.5" cy="374.0" r="9" class="orient-dot" />
  <circle cx="863.5" cy="736.0" r="9" class="orient-dot" />
  <circle cx="550.0" cy="917.0" r="9" class="orient-dot" />
  <circle cx="236.5" cy="736.0" r="9" class="orient-dot" />
  <circle cx="236.5" cy="374.0" r="9" class="orient-dot" />

  <!-- Hash band — slightly quieter dots -->
  <circle cx="550" cy="167" r="2.2" class="hash-open" />
  <circle cx="588.618753289847" cy="162.89721769115448" r="1.6" class="hash-fill" />
  <circle cx="625.6950449422578" cy="174.45531120354661" r="2.2" class="hash-open" />
  <circle cx="662.6304547747313" cy="183.70714973590293" r="2.2" class="hash-open" />
  <circle cx="698.4811717576549" cy="196.53474138562075" r="1.6" class="hash-fill" />
  <circle cx="732.9019338884872" cy="212.8145494328383" r="1.6" class="hash-fill" />
  <circle cx="768.8946718097233" cy="227.4009727527972" r="2.2" class="hash-open" />
  <circle cx="796.1445942554944" cy="255.07194409525812" r="1.6" class="hash-fill" />
  <circle cx="828.6000717874997" cy="276.3999282125003" r="1.6" class="hash-fill" />
  <circle cx="849.928055904742" cy="308.85540574450556" r="2.2" class="hash-open" />
  <circle cx="882.5878449210181" cy="332.77190679215914" r="1.6" class="hash-fill" />
  <circle cx="897.4769781532518" cy="369.2696856905569" r="1.6" class="hash-fill" />
  <circle cx="908.4652586143793" cy="406.5188282423452" r="2.2" class="hash-open" />
  <circle cx="927.0344922784903" cy="440.62783716174187" r="1.6" class="hash-fill" />
  <circle cx="936.4294004788728" cy="478.13441312564544" r="1.6" class="hash-fill" />
  <circle cx="936.1316739488125" cy="516.9693495521304" r="1.6" class="hash-fill" />
  <circle cx="938" cy="555" r="2.2" class="hash-open" />
  <circle cx="948.0738906688788" cy="594.2068561318243" r="1.6" class="hash-fill" />
  <circle cx="942.3141121612922" cy="633.0361288064513" r="1.6" class="hash-fill" />
  <circle cx="921.2928502640971" cy="667.6304547747313" r="1.6" class="hash-fill" />
  <circle cx="914.008535809447" cy="705.7772723518453" r="2.2" class="hash-open" />
  <circle cx="902.768505739342" cy="743.5586947303991" r="1.6" class="hash-fill" />
  <circle cx="877.5990272472029" cy="773.8946718097231" r="1.6" class="hash-fill" />
  <circle cx="849.928055904742" cy="801.1445942554944" r="2.2" class="hash-open" />
  <circle cx="824.3574311003804" cy="829.3574311003804" r="1.6" class="hash-fill" />
  <circle cx="796.1445942554944" cy="854.928055904742" r="2.2" class="hash-open" />
  <circle cx="765.5612504116057" cy="877.6102095733876" r="2.2" class="hash-open" />
  <circle cx="735.7303143094432" cy="902.4769781532518" r="2.2" class="hash-open" />
  <circle cx="698.4811717576549" cy="913.4652586143793" r="1.6" class="hash-fill" />
  <circle cx="662.6304547747313" cy="926.2928502640971" r="1.6" class="hash-fill" />
  <circle cx="628.0361288064514" cy="947.3141121612922" r="2.2" class="hash-open" />
  <circle cx="588.0306504478696" cy="941.1316739488124" r="1.6" class="hash-fill" />
  <circle cx="550" cy="949" r="2.2" class="hash-open" />
  <circle cx="510.7931438681757" cy="953.0738906688788" r="1.6" class="hash-fill" />
  <circle cx="474.3049550577422" cy="935.5446887964533" r="2.2" class="hash-open" />
  <circle cx="437.36954522526867" cy="926.2928502640971" r="1.6" class="hash-fill" />
  <circle cx="396.9266270539641" cy="924.5518130045148" r="2.2" class="hash-open" />
  <circle cx="367.09806611151294" cy="897.1854505671618" r="2.2" class="hash-open" />
  <circle cx="334.43874958839444" cy="877.6102095733876" r="1.6" class="hash-fill" />
  <circle cx="300.0490460395237" cy="859.5661186249184" r="2.2" class="hash-open" />
  <circle cx="267.15728752538104" cy="837.842712474619" r="1.6" class="hash-fill" />
  <circle cx="240.79581865490536" cy="808.7573136654584" r="1.6" class="hash-fill" />
  <circle cx="227.38979042661242" cy="770.5612504116057" r="2.2" class="hash-open" />
  <circle cx="202.52302184674818" cy="740.7303143094432" r="2.2" class="hash-open" />
  <circle cx="191.5347413856208" cy="703.481171757655" r="1.6" class="hash-fill" />
  <circle cx="172.9655077215097" cy="669.3721628382582" r="2.2" class="hash-open" />
  <circle cx="157.6858878387078" cy="633.0361288064514" r="1.6" class="hash-fill" />
  <circle cx="151.9261093311212" cy="594.2068561318241" r="2.2" class="hash-open" />
  <circle cx="162" cy="555" r="1.6" class="hash-fill" />
  <circle cx="151.9261093311212" cy="515.7931438681759" r="2.2" class="hash-open" />
  <circle cx="157.6858878387078" cy="476.96387119354864" r="1.6" class="hash-fill" />
  <circle cx="167.22386570711643" cy="438.8861290982152" r="1.6" class="hash-fill" />
  <circle cx="191.5347413856208" cy="406.5188282423451" r="2.2" class="hash-open" />
  <circle cx="202.52302184674812" cy="369.2696856905569" r="1.6" class="hash-fill" />
  <circle cx="217.4121550789818" cy="332.77190679215926" r="1.6" class="hash-fill" />
  <circle cx="245.43388137508168" cy="305.04904603952366" r="2.2" class="hash-open" />
  <circle cx="267.1572875253809" cy="272.15728752538104" r="1.6" class="hash-fill" />
  <circle cx="303.8554057445054" cy="255.07194409525817" r="1.6" class="hash-fill" />
  <circle cx="334.43874958839433" cy="232.38979042661242" r="1.6" class="hash-fill" />
  <circle cx="361.44130526960083" cy="202.231494260658" r="1.6" class="hash-fill" />
  <circle cx="401.51882824234497" cy="196.5347413856208" r="1.6" class="hash-fill" />
  <circle cx="433.886129098215" cy="172.2238657071165" r="1.6" class="hash-fill" />
  <circle cx="473.1344131256453" cy="168.57059952112724" r="1.6" class="hash-fill" />
  <circle cx="511.96934955213055" cy="168.86832605118758" r="1.6" class="hash-fill" />

  <!-- Core circle with type-specific symbol -->
  <circle cx="550" cy="555" r="78" class="line-strong" />
  <circle cx="550" cy="555" r="60" class="line-mid" />
  <text x="550" y="577" text-anchor="middle" class="text-core-big">⊞</text>
  <text x="550" y="601" text-anchor="middle" class="text-core-small">BASE SNAPSHOT</text>

  <!-- Sparse delta points — guide lines + dots, using wider spacing (6 rings, step 44) -->
  <line x1="480.4" y1="602.0" x2="448.9" y2="623.2" class="guide" />
    <circle cx="448.9" cy="623.2" r="5.2" class="point-soft" />
  <line x1="588.1" y1="629.8" x2="625.4" y2="702.9" class="line-soft" />
    <circle cx="625.4" cy="702.9" r="5.2" class="point" />
  <line x1="576.0" y1="475.1" x2="614.9" y2="355.3" class="line-soft" />
    <circle cx="614.9" cy="355.3" r="4.2" class="point" />
  <line x1="624.8" y1="516.9" x2="776.3" y2="439.7" class="line-soft" />
    <circle cx="776.3" cy="439.7" r="3.2" class="point" />
  <line x1="589.4" y1="629.2" x2="689.9" y2="818.1" class="line-soft" />
    <circle cx="689.9" cy="818.1" r="4.2" class="point" />

  <!-- Footer meta boxes -->
  <g transform="translate(100, 1082)">
    <rect x="0" y="0" width="230" height="82" rx="10" class="label-box" />
    <text x="14" y="26" class="text-small">⊙ = payload hash band</text>
    <text x="14" y="48" class="text-small">● = sparse delta marker</text>
    <text x="14" y="68" class="text-small">BASE SNAPSHOT token</text>
  </g>

  <g transform="translate(770, 1074)">
    <rect x="0" y="0" width="230" height="96" rx="10" class="label-box" />
    <text x="110" y="24" text-anchor="middle" class="text-meta">TOKEN META</text>
    <text x="14" y="48" class="text-small">Encoding: BINARY_FOLDER</text>
    <text x="14" y="68" class="text-small">Message: 286 · Δ 5</text>
    <text x="14" y="88" class="text-small">Version: 1.3</text>
  </g>

  <!-- Footer -->
  <text x="550" y="1144"    text-anchor="middle" class="text-medium">VSC-1.3 / FOLDER</text>
  <text x="550" y="1178"   text-anchor="middle" class="text-id">TOKEN ID: 949F6C70AF8A</text>
  <text x="550" y="1210" text-anchor="middle" class="text-meta">HASH: 949F6C70AF8A9A469886D2A9</text>
</svg>