<?xml version="1.0" encoding="UTF-8"?>
<svg
  xmlns="http://www.w3.org/2000/svg"
  width="1100"
  height="1280"
  viewBox="0 0 1100 1280"
>
  <defs>
    <style>
      .bg          { fill: #f8f8f6; }
      .line-strong { stroke: #111; stroke-width: 2.4; fill: none; }
      .line-mid    { stroke: #888; stroke-width: 1.2; fill: none; }
      .line-soft   { stroke: #d8d8d8; stroke-width: 0.8; fill: none; }
      .text-title  { font-family: Arial, Helvetica, sans-serif; font-size: 28px; letter-spacing: 8px; fill: #111; }
      .text-subtitle { font-family: Arial, Helvetica, sans-serif; font-size: 12px; letter-spacing: 4px; fill: #444; }
      .text-small  { font-family: Arial, Helvetica, sans-serif; font-size: 13px; fill: #333; }
      .text-medium { font-family: Arial, Helvetica, sans-serif; font-size: 16px; fill: #222; }
      .text-meta   { font-family: Arial, Helvetica, sans-serif; font-size: 12px; letter-spacing: 2px; fill: #444; }
      .text-id     { font-family: 'Courier New', monospace; font-size: 14px; letter-spacing: 2px; fill: #111; }
      .text-core-big   { font-family: Arial, Helvetica, sans-serif; font-size: 58px; font-weight: 700; fill: #111; }
      .text-core-small { font-family: Arial, Helvetica, sans-serif; font-size: 11px; letter-spacing: 2px; fill: #555; }
      .label-box   { fill: #f9f9f9; stroke: #c8c8c8; stroke-width: 1.1; }
      .orient-dot  { fill: #fff; stroke: #ccc; stroke-width: 1.2; }
      .hash-fill   { fill: #333; }
      .hash-open   { fill: none; stroke: #999; stroke-width: 0.9; }
      .point       { fill: #111; }
      .point-soft  { fill: #666; opacity: 0.7; }
      .guide       { stroke: #ccc; stroke-width: 0.8; fill: none; stroke-dasharray: 3 7; }
      .crosshair   { stroke: #e8e8e8; stroke-width: 0.8; stroke-dasharray: 2 8; }
    </style>
  </defs>

  <rect class="bg" x="0" y="0" width="1100" height="1280" />

  <!-- Title / subtitle -->
  <text x="550" y="86" text-anchor="middle" class="text-title">VSC TEXT TOKEN</text>
  <text x="550" y="118" text-anchor="middle" class="text-subtitle">MACHINE READABLE · BASELINE 0 · SPARSE DELTA · SHA-256</text>
  <line x1="400" y1="132" x2="700" y2="132" class="line-soft" />

  <!-- Quiet crosshairs — two axes only -->
  <line x1="550" y1="195" x2="550" y2="915" class="crosshair" />
  <line x1="190" y1="555" x2="910" y2="555" class="crosshair" />

  <!-- 5 structural rings (was 12) -->
  <circle cx="550" cy="555" r="134" class="line-soft" />
  <circle cx="550" cy="555" r="190" class="line-soft" />
  <circle cx="550" cy="555" r="246" class="line-soft" />
  <circle cx="550" cy="555" r="302" class="line-soft" />
  <circle cx="550" cy="555" r="358" class="line-soft" />

  <!-- Outer ring — strong boundary -->
  <circle cx="550" cy="555" r="360" class="line-strong" />
  <circle cx="550" cy="555" r="342" class="line-mid" />

  <!-- Six quiet orientation dots (no number) -->
  <circle cx="550.0" cy="193.0" r="9" class="orient-dot" />
  <circle cx="863.5" cy="374.0" r="9" class="orient-dot" />
  <circle cx="863.5" cy="736.0" r="9" class="orient-dot" />
  <circle cx="550.0" cy="917.0" r="9" class="orient-dot" />
  <circle cx="236.5" cy="736.0" r="9" class="orient-dot" />
  <circle cx="236.5" cy="374.0" r="9" class="orient-dot" />

  <!-- Hash band — slightly quieter dots -->
  <circle cx="550" cy="161" r="1.6" class="hash-fill" />
  <circle cx="589.2068561318243" cy="156.92610933112127" r="2.2" class="hash-open" />
  <circle cx="626.8655868743546" cy="168.57059952112724" r="2.2" class="hash-open" />
  <circle cx="662.6304547747313" cy="183.70714973590293" r="2.2" class="hash-open" />
  <circle cx="698.4811717576549" cy="196.53474138562075" r="1.6" class="hash-fill" />
  <circle cx="738.5586947303991" cy="202.231494260658" r="2.2" class="hash-open" />
  <circle cx="765.5612504116057" cy="232.38979042661242" r="1.6" class="hash-fill" />
  <circle cx="799.9509539604763" cy="250.43388137508168" r="2.2" class="hash-open" />
  <circle cx="832.842712474619" cy="272.15728752538104" r="1.6" class="hash-fill" />
  <circle cx="854.5661186249183" cy="305.04904603952366" r="2.2" class="hash-open" />
  <circle cx="877.5990272472028" cy="336.10532819027674" r="2.2" class="hash-open" />
  <circle cx="902.768505739342" cy="366.4413052696009" r="1.6" class="hash-fill" />
  <circle cx="908.4652586143793" cy="406.5188282423452" r="1.6" class="hash-fill" />
  <circle cx="921.2928502640971" cy="442.36954522526867" r="2.2" class="hash-open" />
  <circle cx="936.4294004788728" cy="478.13441312564544" r="2.2" class="hash-open" />
  <circle cx="936.1316739488125" cy="516.9693495521304" r="2.2" class="hash-open" />
  <circle cx="938" cy="555" r="1.6" class="hash-fill" />
  <circle cx="948.0738906688788" cy="594.2068561318243" r="2.2" class="hash-open" />
  <circle cx="942.3141121612922" cy="633.0361288064513" r="1.6" class="hash-fill" />
  <circle cx="921.2928502640971" cy="667.6304547747313" r="1.6" class="hash-fill" />
  <circle cx="908.4652586143793" cy="703.4811717576548" r="1.6" class="hash-fill" />
  <circle cx="897.4769781532518" cy="740.7303143094431" r="2.2" class="hash-open" />
  <circle cx="882.5878449210181" cy="777.2280932078409" r="1.6" class="hash-fill" />
  <circle cx="854.5661186249184" cy="804.9509539604762" r="1.6" class="hash-fill" />
  <circle cx="828.6000717874997" cy="833.6000717874997" r="2.2" class="hash-open" />
  <circle cx="803.7573136654582" cy="864.2041813450949" r="1.6" class="hash-fill" />
  <circle cx="765.5612504116057" cy="877.6102095733876" r="2.2" class="hash-open" />
  <circle cx="735.7303143094432" cy="902.4769781532518" r="1.6" class="hash-fill" />
  <circle cx="698.4811717576549" cy="913.4652586143793" r="2.2" class="hash-open" />
  <circle cx="662.6304547747313" cy="926.2928502640971" r="2.2" class="hash-open" />
  <circle cx="626.8655868743547" cy="941.4294004788728" r="2.2" class="hash-open" />
  <circle cx="588.618753289847" cy="947.1027823088455" r="1.6" class="hash-fill" />
  <circle cx="550" cy="955" r="1.6" class="hash-fill" />
  <circle cx="510.7931438681757" cy="953.0738906688788" r="1.6" class="hash-fill" />
  <circle cx="474.3049550577422" cy="935.5446887964533" r="2.2" class="hash-open" />
  <circle cx="433.8861290982151" cy="937.7761342928836" r="1.6" class="hash-fill" />
  <circle cx="396.9266270539641" cy="924.5518130045148" r="1.6" class="hash-fill" />
  <circle cx="367.09806611151294" cy="897.1854505671618" r="2.2" class="hash-open" />
  <circle cx="334.43874958839444" cy="877.6102095733876" r="2.2" class="hash-open" />
  <circle cx="300.0490460395237" cy="859.5661186249184" r="2.2" class="hash-open" />
  <circle cx="275.64256889961956" cy="829.3574311003804" r="1.6" class="hash-fill" />
  <circle cx="250.07194409525817" cy="801.1445942554946" r="2.2" class="hash-open" />
  <circle cx="227.38979042661242" cy="770.5612504116057" r="1.6" class="hash-fill" />
  <circle cx="202.52302184674818" cy="740.7303143094432" r="2.2" class="hash-open" />
  <circle cx="185.99146419055313" cy="705.7772723518456" r="2.2" class="hash-open" />
  <circle cx="167.2238657071165" cy="671.1138709017849" r="2.2" class="hash-open" />
  <circle cx="157.6858878387078" cy="633.0361288064514" r="2.2" class="hash-open" />
  <circle cx="151.9261093311212" cy="594.2068561318241" r="1.6" class="hash-fill" />
  <circle cx="150" cy="555" r="1.6" class="hash-fill" />
  <circle cx="163.86832605118758" cy="516.9693495521307" r="1.6" class="hash-fill" />
  <circle cx="163.57059952112724" cy="478.13441312564544" r="2.2" class="hash-open" />
  <circle cx="178.70714973590293" cy="442.36954522526867" r="1.6" class="hash-fill" />
  <circle cx="185.99146419055307" cy="404.22272764815455" r="1.6" class="hash-fill" />
  <circle cx="202.52302184674812" cy="369.2696856905569" r="1.6" class="hash-fill" />
  <circle cx="222.4009727527971" cy="336.10532819027685" r="2.2" class="hash-open" />
  <circle cx="240.79581865490525" cy="301.24268633454176" r="2.2" class="hash-open" />
  <circle cx="275.6425688996195" cy="280.64256889961956" r="1.6" class="hash-fill" />
  <circle cx="300.0490460395235" cy="250.43388137508174" r="2.2" class="hash-open" />
  <circle cx="331.10532819027674" cy="227.4009727527972" r="2.2" class="hash-open" />
  <circle cx="364.2696856905568" cy="207.52302184674818" r="1.6" class="hash-fill" />
  <circle cx="401.51882824234497" cy="196.5347413856208" r="1.6" class="hash-fill" />
  <circle cx="435.6278371617418" cy="177.9655077215097" r="2.2" class="hash-open" />
  <circle cx="471.9638711935485" cy="162.68588783870786" r="2.2" class="hash-open" />
  <circle cx="511.96934955213055" cy="168.86832605118758" r="2.2" class="hash-open" />

  <!-- Core circle with type-specific symbol -->
  <circle cx="550" cy="555" r="78" class="line-strong" />
  <circle cx="550" cy="555" r="60" class="line-mid" />
  <text x="550" y="577" text-anchor="middle" class="text-core-big">◌</text>
  <text x="550" y="601" text-anchor="middle" class="text-core-small">SPARSE PROOF</text>

  <!-- Sparse delta points — guide lines + dots, using wider spacing (6 rings, step 44) -->
  <line x1="478.8" y1="510.5" x2="446.5" y2="490.3" class="guide" />
    <circle cx="446.5" cy="490.3" r="5.2" class="point-soft" />
  <line x1="542.7" y1="471.3" x2="535.5" y2="389.6" class="line-soft" />
    <circle cx="535.5" cy="389.6" r="3.2" class="point" />
  <line x1="610.4" y1="496.6" x2="701.1" y2="409.1" class="line-soft" />
    <circle cx="701.1" cy="409.1" r="5.2" class="point" />
  <line x1="633.9" y1="559.4" x2="803.7" y2="568.3" class="line-soft" />
    <circle cx="803.7" cy="568.3" r="3.2" class="point" />
  <line x1="595.7" y1="625.4" x2="712.3" y2="804.9" class="line-soft" />
    <circle cx="712.3" cy="804.9" r="5.2" class="point" />
  <line x1="522.7" y1="634.4" x2="438.7" y2="878.4" class="line-soft" />
    <circle cx="438.7" cy="878.4" r="5.2" class="point-soft" />
  <line x1="474.5" y1="591.8" x2="440.3" y2="608.5" class="line-soft" />
    <circle cx="440.3" cy="608.5" r="4.2" class="point" />
  <line x1="474.5" y1="518.2" x2="400.8" y2="482.2" class="guide" />
    <circle cx="400.8" cy="482.2" r="4.2" class="point" />
  <line x1="534.0" y1="472.5" x2="509.9" y2="348.9" class="line-soft" />
    <circle cx="509.9" cy="348.9" r="5.2" class="point" />
  <line x1="604.0" y1="490.7" x2="713.3" y2="360.4" class="line-soft" />
    <circle cx="713.3" cy="360.4" r="4.2" class="point" />
  <line x1="633.7" y1="547.7" x2="846.9" y2="529.0" class="line-soft" />
    <circle cx="846.9" cy="529.0" r="3.2" class="point-soft" />
  <line x1="607.3" y1="616.4" x2="783.2" y2="805.1" class="line-soft" />
    <circle cx="783.2" cy="805.1" r="3.2" class="point" />
  <line x1="535.4" y1="637.7" x2="528.8" y2="675.1" class="line-soft" />
    <circle cx="528.8" cy="675.1" r="4.2" class="point" />
  <line x1="476.5" y1="595.7" x2="404.8" y2="635.5" class="line-soft" />
    <circle cx="404.8" cy="635.5" r="3.2" class="point" />
  <line x1="469.7" y1="530.4" x2="349.2" y2="493.6" class="guide" />
    <circle cx="349.2" cy="493.6" r="3.2" class="point" />
  <line x1="517.2" y1="477.7" x2="450.8" y2="321.2" class="line-soft" />
    <circle cx="450.8" cy="321.2" r="4.2" class="point-soft" />
  <line x1="593.3" y1="483.0" x2="703.5" y2="299.6" class="line-soft" />
    <circle cx="703.5" cy="299.6" r="3.2" class="point" />
  <line x1="632.2" y1="537.5" x2="884.5" y2="483.9" class="line-soft" />
    <circle cx="884.5" cy="483.9" r="4.2" class="point" />
  <line x1="610.4" y1="613.4" x2="637.8" y2="639.7" class="line-soft" />
    <circle cx="637.8" cy="639.7" r="5.2" class="point" />
  <line x1="551.5" y1="639.0" x2="552.9" y2="721.0" class="line-soft" />
    <circle cx="552.9" cy="721.0" r="4.2" class="point" />
  <line x1="484.7" y1="607.9" x2="386.8" y2="687.2" class="line-soft" />
    <circle cx="386.8" cy="687.2" r="4.2" class="point-soft" />
  <line x1="468.2" y1="536.1" x2="302.5" y2="497.9" class="guide" />
    <circle cx="302.5" cy="497.9" r="4.2" class="point" />
  <line x1="508.0" y1="482.3" x2="401.0" y2="296.9" class="line-soft" />
    <circle cx="401.0" cy="296.9" r="5.2" class="point" />
  <line x1="586.8" y1="479.5" x2="699.9" y2="247.6" class="line-soft" />
    <circle cx="699.9" cy="247.6" r="3.2" class="point" />
  <line x1="629.9" y1="529.0" x2="666.0" y2="517.3" class="line-soft" />
    <circle cx="666.0" cy="517.3" r="3.2" class="point" />
  <line x1="621.2" y1="599.5" x2="690.8" y2="643.0" class="line-soft" />
    <circle cx="690.8" cy="643.0" r="4.2" class="point-soft" />
  <line x1="557.3" y1="638.7" x2="568.3" y2="764.2" class="line-soft" />
    <circle cx="568.3" cy="764.2" r="5.2" class="point" />
  <line x1="489.6" y1="613.4" x2="367.3" y2="731.4" class="line-soft" />
    <circle cx="367.3" cy="731.4" r="4.2" class="point" />
  <line x1="466.8" y1="543.3" x2="254.9" y2="513.5" class="guide" />
    <circle cx="254.9" cy="513.5" r="4.2" class="point" />
  <line x1="499.4" y1="487.9" x2="344.2" y2="281.9" class="line-soft" />
    <circle cx="344.2" cy="281.9" r="3.2" class="point" />
  <line x1="573.2" y1="474.3" x2="583.6" y2="437.7" class="line-soft" />
    <circle cx="583.6" cy="437.7" r="4.2" class="point-soft" />
  <line x1="627.3" y1="522.2" x2="702.8" y2="490.1" class="line-soft" />
    <circle cx="702.8" cy="490.1" r="3.2" class="point" />
  <line x1="624.2" y1="594.4" x2="735.4" y2="653.6" class="line-soft" />
    <circle cx="735.4" cy="653.6" r="5.2" class="point" />
  <line x1="566.0" y1="637.5" x2="598.5" y2="804.3" class="line-soft" />
    <circle cx="598.5" cy="804.3" r="4.2" class="point" />
  <line x1="503.0" y1="624.6" x2="383.4" y2="802.1" class="line-soft" />
    <circle cx="383.4" cy="802.1" r="3.2" class="point" />
  <line x1="466.2" y1="560.9" x2="208.8" y2="578.9" class="guide" />
    <circle cx="208.8" cy="578.9" r="3.2" class="point-soft" />
  <line x1="494.9" y1="491.6" x2="470.0" y2="462.9" class="line-soft" />
    <circle cx="470.0" cy="462.9" r="4.2" class="point" />
  <line x1="557.3" y1="471.3" x2="564.5" y2="389.6" class="line-soft" />
    <circle cx="564.5" cy="389.6" r="4.2" class="point" />
  <line x1="622.0" y1="511.7" x2="730.0" y2="446.8" class="line-soft" />
    <circle cx="730.0" cy="446.8" r="3.2" class="point" />
  <line x1="628.4" y1="585.1" x2="787.1" y2="646.0" class="line-soft" />
    <circle cx="787.1" cy="646.0" r="3.2" class="point" />
  <line x1="582.8" y1="632.3" x2="666.4" y2="829.3" class="line-soft" />
    <circle cx="666.4" cy="829.3" r="3.2" class="point-soft" />
  <line x1="511.9" y1="629.8" x2="394.7" y2="859.7" class="line-soft" />
    <circle cx="394.7" cy="859.7" r="4.2" class="point" />
  <line x1="467.5" y1="571.0" x2="430.2" y2="578.3" class="guide" />
    <circle cx="430.2" cy="578.3" r="4.2" class="point" />
  <line x1="486.6" y1="499.9" x2="424.7" y2="446.1" class="line-soft" />
    <circle cx="424.7" cy="446.1" r="4.2" class="point" />
  <line x1="547.1" y1="471.1" x2="542.7" y2="345.1" class="line-soft" />
    <circle cx="542.7" cy="345.1" r="5.2" class="point" />
  <line x1="614.3" y1="501.0" x2="744.6" y2="391.7" class="line-soft" />
    <circle cx="744.6" cy="391.7" r="5.2" class="point-soft" />
  <line x1="631.8" y1="573.9" x2="840.4" y2="622.0" class="line-soft" />
    <circle cx="840.4" cy="622.0" r="3.2" class="point" />
  <line x1="593.3" y1="627.0" x2="726.1" y2="848.2" class="line-soft" />
    <circle cx="726.1" cy="848.2" r="3.2" class="point" />
  <line x1="519.9" y1="633.4" x2="506.3" y2="668.9" class="line-soft" />
    <circle cx="506.3" cy="668.9" r="3.2" class="point" />
  <line x1="469.7" y1="579.6" x2="391.3" y2="603.5" class="guide" />
    <circle cx="391.3" cy="603.5" r="3.2" class="point" />
  <line x1="481.2" y1="506.8" x2="378.0" y2="434.5" class="line-soft" />
    <circle cx="378.0" cy="434.5" r="3.2" class="point-soft" />
  <line x1="535.4" y1="472.3" x2="505.9" y2="304.9" class="line-soft" />
    <circle cx="505.9" cy="304.9" r="5.2" class="point" />
  <line x1="606.2" y1="492.6" x2="749.4" y2="333.5" class="line-soft" />
    <circle cx="749.4" cy="333.5" r="5.2" class="point" />
  <line x1="633.8" y1="560.9" x2="891.2" y2="578.9" class="line-soft" />
    <circle cx="891.2" cy="578.9" r="5.2" class="point" />
  <line x1="602.9" y1="620.3" x2="626.8" y2="649.8" class="line-soft" />
    <circle cx="626.8" cy="649.8" r="3.2" class="point" />
  <line x1="529.7" y1="636.5" x2="509.8" y2="716.1" class="line-soft" />
    <circle cx="509.8" cy="716.1" r="4.2" class="point-soft" />

  <!-- Footer meta boxes -->
  <g transform="translate(100, 1082)">
    <rect x="0" y="0" width="230" height="82" rx="10" class="label-box" />
    <text x="14" y="26" class="text-small">⊙ = payload hash band</text>
    <text x="14" y="48" class="text-small">● = sparse delta marker</text>
    <text x="14" y="68" class="text-small">SPARSE PROOF token</text>
  </g>

  <g transform="translate(770, 1074)">
    <rect x="0" y="0" width="230" height="96" rx="10" class="label-box" />
    <text x="110" y="24" text-anchor="middle" class="text-meta">TOKEN META</text>
    <text x="14" y="48" class="text-small">Encoding: ASCII</text>
    <text x="14" y="68" class="text-small">Message: 20 · Δ 56</text>
    <text x="14" y="88" class="text-small">Version: 0.3</text>
  </g>

  <!-- Footer -->
  <text x="550" y="1144"    text-anchor="middle" class="text-medium">VSC-0.3 / TEXT</text>
  <text x="550" y="1178"   text-anchor="middle" class="text-id">TOKEN ID: 451F0BC7217E</text>
  <text x="550" y="1210" text-anchor="middle" class="text-meta">HASH: 451F0BC7217ECF73CB8C0DE4</text>
</svg>