<?xml version="1.0" encoding="UTF-8"?>
<svg
  xmlns="http://www.w3.org/2000/svg"
  width="1100"
  height="1280"
  viewBox="0 0 1100 1280"
>
  <defs>
    <style>
      .bg          { fill: #f8f8f6; }
      .line-strong { stroke: #111; stroke-width: 2.4; fill: none; }
      .line-mid    { stroke: #888; stroke-width: 1.2; fill: none; }
      .line-soft   { stroke: #d8d8d8; stroke-width: 0.8; fill: none; }
      .text-title  { font-family: Arial, Helvetica, sans-serif; font-size: 28px; letter-spacing: 8px; fill: #111; }
      .text-subtitle { font-family: Arial, Helvetica, sans-serif; font-size: 12px; letter-spacing: 4px; fill: #444; }
      .text-small  { font-family: Arial, Helvetica, sans-serif; font-size: 13px; fill: #333; }
      .text-medium { font-family: Arial, Helvetica, sans-serif; font-size: 16px; fill: #222; }
      .text-meta   { font-family: Arial, Helvetica, sans-serif; font-size: 12px; letter-spacing: 2px; fill: #444; }
      .text-id     { font-family: 'Courier New', monospace; font-size: 14px; letter-spacing: 2px; fill: #111; }
      .text-core-big   { font-family: Arial, Helvetica, sans-serif; font-size: 58px; font-weight: 700; fill: #111; }
      .text-core-small { font-family: Arial, Helvetica, sans-serif; font-size: 11px; letter-spacing: 2px; fill: #555; }
      .label-box   { fill: #f9f9f9; stroke: #c8c8c8; stroke-width: 1.1; }
      .orient-dot  { fill: #fff; stroke: #ccc; stroke-width: 1.2; }
      .hash-fill   { fill: #333; }
      .hash-open   { fill: none; stroke: #999; stroke-width: 0.9; }
      .point       { fill: #111; }
      .point-soft  { fill: #666; opacity: 0.7; }
      .guide       { stroke: #ccc; stroke-width: 0.8; fill: none; stroke-dasharray: 3 7; }
      .crosshair   { stroke: #e8e8e8; stroke-width: 0.8; stroke-dasharray: 2 8; }
    </style>
  </defs>

  <rect class="bg" x="0" y="0" width="1100" height="1280" />

  <!-- Title / subtitle -->
  <text x="550" y="86" text-anchor="middle" class="text-title">VSC MELODY TOKEN</text>
  <text x="550" y="118" text-anchor="middle" class="text-subtitle">MACHINE READABLE · BASELINE 0 · SPARSE DELTA · SHA-256</text>
  <line x1="400" y1="132" x2="700" y2="132" class="line-soft" />

  <!-- Quiet crosshairs — two axes only -->
  <line x1="550" y1="195" x2="550" y2="915" class="crosshair" />
  <line x1="190" y1="555" x2="910" y2="555" class="crosshair" />

  <!-- 5 structural rings (was 12) -->
  <circle cx="550" cy="555" r="134" class="line-soft" />
  <circle cx="550" cy="555" r="190" class="line-soft" />
  <circle cx="550" cy="555" r="246" class="line-soft" />
  <circle cx="550" cy="555" r="302" class="line-soft" />
  <circle cx="550" cy="555" r="358" class="line-soft" />

  <!-- Outer ring — strong boundary -->
  <circle cx="550" cy="555" r="360" class="line-strong" />
  <circle cx="550" cy="555" r="342" class="line-mid" />

  <!-- Six quiet orientation dots (no number) -->
  <circle cx="550.0" cy="193.0" r="9" class="orient-dot" />
  <circle cx="863.5" cy="374.0" r="9" class="orient-dot" />
  <circle cx="863.5" cy="736.0" r="9" class="orient-dot" />
  <circle cx="550.0" cy="917.0" r="9" class="orient-dot" />
  <circle cx="236.5" cy="736.0" r="9" class="orient-dot" />
  <circle cx="236.5" cy="374.0" r="9" class="orient-dot" />

  <!-- Hash band — slightly quieter dots -->
  <circle cx="550" cy="167" r="2.2" class="hash-open" />
  <circle cx="589.2068561318243" cy="156.92610933112127" r="1.6" class="hash-fill" />
  <circle cx="626.8655868743546" cy="168.57059952112724" r="2.2" class="hash-open" />
  <circle cx="662.6304547747313" cy="183.70714973590293" r="1.6" class="hash-fill" />
  <circle cx="700.7772723518453" cy="190.99146419055302" r="2.2" class="hash-open" />
  <circle cx="738.5586947303991" cy="202.231494260658" r="2.2" class="hash-open" />
  <circle cx="765.5612504116057" cy="232.38979042661242" r="1.6" class="hash-fill" />
  <circle cx="799.9509539604763" cy="250.43388137508168" r="2.2" class="hash-open" />
  <circle cx="828.6000717874997" cy="276.3999282125003" r="2.2" class="hash-open" />
  <circle cx="854.5661186249183" cy="305.04904603952366" r="2.2" class="hash-open" />
  <circle cx="872.6102095733876" cy="339.43874958839433" r="1.6" class="hash-fill" />
  <circle cx="892.1854505671618" cy="372.0980661115129" r="2.2" class="hash-open" />
  <circle cx="908.4652586143793" cy="406.5188282423452" r="1.6" class="hash-fill" />
  <circle cx="932.7761342928836" cy="438.88612909821506" r="1.6" class="hash-fill" />
  <circle cx="936.4294004788728" cy="478.13441312564544" r="1.6" class="hash-fill" />
  <circle cx="942.1027823088456" cy="516.381246710153" r="1.6" class="hash-fill" />
  <circle cx="950" cy="555" r="2.2" class="hash-open" />
  <circle cx="942.1027823088456" cy="593.618753289847" r="2.2" class="hash-open" />
  <circle cx="942.3141121612922" cy="633.0361288064513" r="1.6" class="hash-fill" />
  <circle cx="932.7761342928836" cy="671.1138709017849" r="1.6" class="hash-fill" />
  <circle cx="908.4652586143793" cy="703.4811717576548" r="1.6" class="hash-fill" />
  <circle cx="892.1854505671618" cy="737.9019338884871" r="2.2" class="hash-open" />
  <circle cx="872.6102095733876" cy="770.5612504116057" r="2.2" class="hash-open" />
  <circle cx="859.2041813450949" cy="808.7573136654581" r="1.6" class="hash-fill" />
  <circle cx="824.3574311003804" cy="829.3574311003804" r="2.2" class="hash-open" />
  <circle cx="799.9509539604763" cy="859.5661186249183" r="2.2" class="hash-open" />
  <circle cx="772.2280932078409" cy="887.5878449210181" r="1.6" class="hash-fill" />
  <circle cx="732.9019338884872" cy="897.1854505671618" r="2.2" class="hash-open" />
  <circle cx="703.073372946036" cy="924.5518130045148" r="2.2" class="hash-open" />
  <circle cx="662.6304547747313" cy="926.2928502640971" r="1.6" class="hash-fill" />
  <circle cx="625.6950449422578" cy="935.5446887964533" r="1.6" class="hash-fill" />
  <circle cx="589.2068561318243" cy="953.0738906688787" r="1.6" class="hash-fill" />
  <circle cx="550" cy="943" r="2.2" class="hash-open" />
  <circle cx="511.96934955213044" cy="941.1316739488125" r="1.6" class="hash-fill" />
  <circle cx="473.13441312564544" cy="941.4294004788728" r="1.6" class="hash-fill" />
  <circle cx="437.36954522526867" cy="926.2928502640971" r="2.2" class="hash-open" />
  <circle cx="399.22272764815466" cy="919.008535809447" r="2.2" class="hash-open" />
  <circle cx="361.4413052696009" cy="907.768505739342" r="1.6" class="hash-fill" />
  <circle cx="327.77190679215926" cy="887.5878449210181" r="2.2" class="hash-open" />
  <circle cx="300.0490460395237" cy="859.5661186249184" r="2.2" class="hash-open" />
  <circle cx="267.15728752538104" cy="837.842712474619" r="1.6" class="hash-fill" />
  <circle cx="245.43388137508174" cy="804.9509539604765" r="1.6" class="hash-fill" />
  <circle cx="222.40097275279714" cy="773.8946718097233" r="2.2" class="hash-open" />
  <circle cx="207.8145494328383" cy="737.9019338884872" r="2.2" class="hash-open" />
  <circle cx="191.5347413856208" cy="703.481171757655" r="1.6" class="hash-fill" />
  <circle cx="167.2238657071165" cy="671.1138709017849" r="2.2" class="hash-open" />
  <circle cx="169.45531120354661" cy="630.6950449422579" r="1.6" class="hash-fill" />
  <circle cx="163.86832605118758" cy="593.0306504478694" r="2.2" class="hash-open" />
  <circle cx="162" cy="555" r="1.6" class="hash-fill" />
  <circle cx="157.89721769115442" cy="516.3812467101533" r="2.2" class="hash-open" />
  <circle cx="163.57059952112724" cy="478.13441312564544" r="2.2" class="hash-open" />
  <circle cx="178.70714973590293" cy="442.36954522526867" r="2.2" class="hash-open" />
  <circle cx="185.99146419055307" cy="404.22272764815455" r="2.2" class="hash-open" />
  <circle cx="202.52302184674812" cy="369.2696856905569" r="1.6" class="hash-fill" />
  <circle cx="217.4121550789818" cy="332.77190679215926" r="1.6" class="hash-fill" />
  <circle cx="245.43388137508168" cy="305.04904603952366" r="2.2" class="hash-open" />
  <circle cx="267.1572875253809" cy="272.15728752538104" r="2.2" class="hash-open" />
  <circle cx="303.8554057445054" cy="255.07194409525817" r="1.6" class="hash-fill" />
  <circle cx="334.43874958839433" cy="232.38979042661242" r="2.2" class="hash-open" />
  <circle cx="367.0980661115128" cy="212.8145494328383" r="1.6" class="hash-fill" />
  <circle cx="396.9266270539639" cy="185.4481869954854" r="2.2" class="hash-open" />
  <circle cx="437.36954522526855" cy="183.707149735903" r="1.6" class="hash-fill" />
  <circle cx="471.9638711935485" cy="162.68588783870786" r="1.6" class="hash-fill" />
  <circle cx="511.96934955213055" cy="168.86832605118758" r="1.6" class="hash-fill" />

  <!-- Core circle with type-specific symbol -->
  <circle cx="550" cy="555" r="78" class="line-strong" />
  <circle cx="550" cy="555" r="60" class="line-mid" />
  <text x="550" y="577" text-anchor="middle" class="text-core-big">◌</text>
  <text x="550" y="601" text-anchor="middle" class="text-core-small">SPARSE PROOF</text>

  <!-- Sparse delta points — guide lines + dots, using wider spacing (6 rings, step 44) -->
  <line x1="478.8" y1="510.5" x2="446.5" y2="490.3" class="guide" />
    <circle cx="446.5" cy="490.3" r="5.2" class="point-soft" />
  <line x1="545.6" y1="471.1" x2="541.3" y2="389.2" class="line-soft" />
    <circle cx="541.3" cy="389.2" r="5.2" class="point" />
  <line x1="612.4" y1="498.8" x2="706.1" y2="414.5" class="line-soft" />
    <circle cx="706.1" cy="414.5" r="4.2" class="point" />
  <line x1="633.8" y1="560.9" x2="803.4" y2="572.7" class="line-soft" />
    <circle cx="803.4" cy="572.7" r="4.2" class="point" />
  <line x1="598.2" y1="623.8" x2="720.9" y2="799.1" class="line-soft" />
    <circle cx="720.9" cy="799.1" r="3.2" class="point" />
  <line x1="525.4" y1="635.3" x2="450.0" y2="882.1" class="line-soft" />
    <circle cx="450.0" cy="882.1" r="3.2" class="point-soft" />
  <line x1="473.9" y1="590.5" x2="439.4" y2="606.6" class="line-soft" />
    <circle cx="439.4" cy="606.6" r="5.2" class="point" />
  <line x1="473.9" y1="519.5" x2="399.6" y2="484.8" class="guide" />
    <circle cx="399.6" cy="484.8" r="3.2" class="point" />
  <line x1="534.0" y1="472.5" x2="509.9" y2="348.9" class="line-soft" />
    <circle cx="509.9" cy="348.9" r="5.2" class="point" />
  <line x1="605.1" y1="491.6" x2="716.6" y2="363.3" class="line-soft" />
    <circle cx="716.6" cy="363.3" r="5.2" class="point" />
  <line x1="633.9" y1="550.6" x2="847.6" y2="539.4" class="line-soft" />
    <circle cx="847.6" cy="539.4" r="5.2" class="point-soft" />
  <line x1="606.2" y1="617.4" x2="778.8" y2="809.2" class="line-soft" />
    <circle cx="778.8" cy="809.2" r="4.2" class="point" />
  <line x1="535.4" y1="637.7" x2="528.8" y2="675.1" class="line-soft" />
    <circle cx="528.8" cy="675.1" r="4.2" class="point" />
  <line x1="478.8" y1="599.5" x2="409.2" y2="643.0" class="line-soft" />
    <circle cx="409.2" cy="643.0" r="3.2" class="point" />
  <line x1="470.1" y1="529.0" x2="350.3" y2="490.1" class="guide" />
    <circle cx="350.3" cy="490.1" r="4.2" class="point" />
  <line x1="524.0" y1="475.1" x2="471.5" y2="313.4" class="line-soft" />
    <circle cx="471.5" cy="313.4" r="3.2" class="point-soft" />
  <line x1="595.7" y1="484.6" x2="712.3" y2="305.1" class="line-soft" />
    <circle cx="712.3" cy="305.1" r="5.2" class="point" />
  <line x1="633.5" y1="546.2" x2="890.1" y2="519.3" class="line-soft" />
    <circle cx="890.1" cy="519.3" r="4.2" class="point" />
  <line x1="614.3" y1="609.0" x2="643.5" y2="633.4" class="line-soft" />
    <circle cx="643.5" cy="633.4" r="4.2" class="point" />
  <line x1="548.5" y1="639.0" x2="547.1" y2="721.0" class="line-soft" />
    <circle cx="547.1" cy="721.0" r="3.2" class="point" />
  <line x1="482.9" y1="605.6" x2="382.3" y2="681.4" class="line-soft" />
    <circle cx="382.3" cy="681.4" r="3.2" class="point-soft" />
  <line x1="467.5" y1="539.0" x2="300.7" y2="506.5" class="guide" />
    <circle cx="300.7" cy="506.5" r="5.2" class="point" />
  <line x1="509.3" y1="481.5" x2="405.5" y2="294.4" class="line-soft" />
    <circle cx="405.5" cy="294.4" r="3.2" class="point" />
  <line x1="585.5" y1="478.9" x2="694.5" y2="245.0" class="line-soft" />
    <circle cx="694.5" cy="245.0" r="5.2" class="point" />
  <line x1="631.8" y1="536.1" x2="668.9" y2="527.6" class="line-soft" />
    <circle cx="668.9" cy="527.6" r="5.2" class="point" />
  <line x1="620.4" y1="600.7" x2="689.2" y2="645.4" class="line-soft" />
    <circle cx="689.2" cy="645.4" r="5.2" class="point-soft" />
  <line x1="558.8" y1="638.5" x2="572.0" y2="763.8" class="line-soft" />
    <circle cx="572.0" cy="763.8" r="4.2" class="point" />
  <line x1="489.6" y1="613.4" x2="367.3" y2="731.4" class="line-soft" />
    <circle cx="367.3" cy="731.4" r="4.2" class="point" />
  <line x1="466.2" y1="549.1" x2="252.7" y2="534.2" class="guide" />
    <circle cx="252.7" cy="534.2" r="3.2" class="point" />
  <line x1="500.6" y1="487.0" x2="349.0" y2="278.3" class="line-soft" />
    <circle cx="349.0" cy="278.3" r="4.2" class="point" />
  <line x1="571.7" y1="473.9" x2="581.6" y2="437.2" class="line-soft" />
    <circle cx="581.6" cy="437.2" r="3.2" class="point-soft" />
  <line x1="626.7" y1="520.8" x2="701.6" y2="487.5" class="line-soft" />
    <circle cx="701.6" cy="487.5" r="5.2" class="point" />
  <line x1="624.8" y1="593.1" x2="737.1" y2="650.3" class="line-soft" />
    <circle cx="737.1" cy="650.3" r="4.2" class="point" />
  <line x1="567.5" y1="637.2" x2="602.8" y2="803.4" class="line-soft" />
    <circle cx="602.8" cy="803.4" r="3.2" class="point" />
  <line x1="500.6" y1="623.0" x2="374.8" y2="796.1" class="line-soft" />
    <circle cx="374.8" cy="796.1" r="5.2" class="point" />
  <line x1="466.2" y1="560.9" x2="208.8" y2="578.9" class="guide" />
    <circle cx="208.8" cy="578.9" r="3.2" class="point-soft" />
  <line x1="496.0" y1="490.7" x2="471.6" y2="461.5" class="line-soft" />
    <circle cx="471.6" cy="461.5" r="5.2" class="point" />
  <line x1="561.7" y1="471.8" x2="573.1" y2="390.6" class="line-soft" />
    <circle cx="573.1" cy="390.6" r="4.2" class="point" />
  <line x1="622.0" y1="511.7" x2="730.0" y2="446.8" class="line-soft" />
    <circle cx="730.0" cy="446.8" r="3.2" class="point" />
  <line x1="628.4" y1="585.1" x2="787.1" y2="646.0" class="line-soft" />
    <circle cx="787.1" cy="646.0" r="3.2" class="point" />
  <line x1="580.1" y1="633.4" x2="656.8" y2="833.2" class="line-soft" />
    <circle cx="656.8" cy="833.2" r="5.2" class="point-soft" />
  <line x1="509.3" y1="628.5" x2="384.2" y2="854.1" class="line-soft" />
    <circle cx="384.2" cy="854.1" r="3.2" class="point" />
  <line x1="466.6" y1="565.2" x2="428.9" y2="569.9" class="guide" />
    <circle cx="428.9" cy="569.9" r="5.2" class="point" />
  <line x1="489.6" y1="496.6" x2="430.6" y2="439.7" class="line-soft" />
    <circle cx="430.6" cy="439.7" r="4.2" class="point" />
  <line x1="551.5" y1="471.0" x2="553.7" y2="345.0" class="line-soft" />
    <circle cx="553.7" cy="345.0" r="5.2" class="point" />
  <line x1="616.2" y1="503.3" x2="750.2" y2="398.6" class="line-soft" />
    <circle cx="750.2" cy="398.6" r="4.2" class="point-soft" />
  <line x1="631.5" y1="575.3" x2="839.1" y2="627.1" class="line-soft" />
    <circle cx="839.1" cy="627.1" r="4.2" class="point" />
  <line x1="589.4" y1="629.2" x2="710.6" y2="857.0" class="line-soft" />
    <circle cx="710.6" cy="857.0" r="3.2" class="point" />
  <line x1="518.5" y1="632.9" x2="504.3" y2="668.1" class="line-soft" />
    <circle cx="504.3" cy="668.1" r="4.2" class="point" />
  <line x1="467.8" y1="572.5" x2="387.6" y2="589.5" class="guide" />
    <circle cx="387.6" cy="589.5" r="5.2" class="point" />
  <line x1="480.4" y1="508.0" x2="375.9" y2="437.6" class="line-soft" />
    <circle cx="375.9" cy="437.6" r="5.2" class="point-soft" />
  <line x1="542.7" y1="471.3" x2="527.9" y2="302.0" class="line-soft" />
    <circle cx="527.9" cy="302.0" r="4.2" class="point" />
  <line x1="611.4" y1="497.7" x2="767.9" y2="351.8" class="line-soft" />
    <circle cx="767.9" cy="351.8" r="4.2" class="point" />
  <line x1="633.7" y1="562.3" x2="890.7" y2="584.8" class="line-soft" />
    <circle cx="890.7" cy="584.8" r="3.2" class="point" />
  <line x1="598.2" y1="623.8" x2="620.0" y2="654.9" class="line-soft" />
    <circle cx="620.0" cy="654.9" r="4.2" class="point" />
  <line x1="522.7" y1="634.4" x2="496.0" y2="712.0" class="line-soft" />
    <circle cx="496.0" cy="712.0" r="3.2" class="point-soft" />
  <line x1="471.1" y1="583.7" x2="352.7" y2="626.8" class="guide" />
    <circle cx="352.7" cy="626.8" r="5.2" class="point" />
  <line x1="475.2" y1="516.9" x2="323.7" y2="439.7" class="line-soft" />
    <circle cx="323.7" cy="439.7" r="3.2" class="point" />
  <line x1="532.5" y1="472.8" x2="488.0" y2="263.5" class="line-soft" />
    <circle cx="488.0" cy="263.5" r="5.2" class="point" />
  <line x1="604.0" y1="490.7" x2="769.8" y2="293.0" class="line-soft" />
    <circle cx="769.8" cy="293.0" r="5.2" class="point" />

  <!-- Footer meta boxes -->
  <g transform="translate(100, 1082)">
    <rect x="0" y="0" width="230" height="82" rx="10" class="label-box" />
    <text x="14" y="26" class="text-small">⊙ = payload hash band</text>
    <text x="14" y="48" class="text-small">● = sparse delta marker</text>
    <text x="14" y="68" class="text-small">SPARSE PROOF token</text>
  </g>

  <g transform="translate(770, 1074)">
    <rect x="0" y="0" width="230" height="96" rx="10" class="label-box" />
    <text x="110" y="24" text-anchor="middle" class="text-meta">TOKEN META</text>
    <text x="14" y="48" class="text-small">Encoding: ASCII</text>
    <text x="14" y="68" class="text-small">Message: 25 · Δ 60</text>
    <text x="14" y="88" class="text-small">Version: 0.3</text>
  </g>

  <!-- Footer -->
  <text x="550" y="1144"    text-anchor="middle" class="text-medium">VSC-0.3 / MELODY</text>
  <text x="550" y="1178"   text-anchor="middle" class="text-id">TOKEN ID: F81C7B6D17C3</text>
  <text x="550" y="1210" text-anchor="middle" class="text-meta">HASH: F81C7B6D17C30E445DE8C398</text>
</svg>